STARTFONT 2.1
FONT -Monotype-Times New Roman Tur-Regular-I-Normal--12-120-75-75-P-60-Monotype-FontSpecific
SIZE 12 75 75
FONTBOUNDINGBOX 14 15 -2 -3

STARTPROPERTIES 22
FOUNDRY "Monotype"
FAMILY_NAME "Times New Roman Tur"
WEIGHT_NAME "Regular"
SLANT "I"
SETWIDTH_NAME "Normal"
ADD_STYLE_NAME ""
PIXEL_SIZE 12
POINT_SIZE 120
RESOLUTION_X 75
RESOLUTION_Y 75
SPACING "P"
AVERAGE_WIDTH 60
CHARSET_REGISTRY "Monotype"
CHARSET_ENCODING "FontSpecific"
COPYRIGHT "Copyright (c) 1996 Monotype Typography Ltd."
CAP_HEIGHT 9
X_HEIGHT 6
WEIGHT 10
QUAD_WIDTH 7
DEFAULT_CHAR 160
FONT_DESCENT 3
FONT_ASCENT 12
ENDPROPERTIES

CHARS 191

STARTCHAR space
ENCODING 32
SWIDTH 250 0
DWIDTH 3 0
BBX 0 0 0 0
BITMAP
ENDCHAR

STARTCHAR exclam
ENCODING 33
SWIDTH 333 0
DWIDTH 4 0
BBX 3 9 0 0
BITMAP
20
20
20
40
40
40
40
00
80
ENDCHAR

STARTCHAR quotedbl
ENCODING 34
SWIDTH 420 0
DWIDTH 5 0
BBX 4 3 1 6
BITMAP
50
50
A0
ENDCHAR

STARTCHAR numbersign
ENCODING 35
SWIDTH 500 0
DWIDTH 7 0
BBX 8 10 0 -1
BITMAP
12
12
12
7F
24
24
FE
48
48
48
ENDCHAR

STARTCHAR dollar
ENCODING 36
SWIDTH 500 0
DWIDTH 7 0
BBX 6 11 0 -1
BITMAP
08
38
54
54
20
10
28
A8
A8
70
40
ENDCHAR

STARTCHAR percent
ENCODING 37
SWIDTH 833 0
DWIDTH 11 0
BBX 9 9 1 0
BITMAP
2080
5100
9200
A400
4900
1280
2480
4500
8200
ENDCHAR

STARTCHAR ampersand
ENCODING 38
SWIDTH 778 0
DWIDTH 10 0
BBX 9 9 1 0
BITMAP
0C00
1200
1400
3800
5380
8900
8A00
8C00
7380
ENDCHAR

STARTCHAR quoteright
ENCODING 39
SWIDTH 333 0
DWIDTH 4 0
BBX 2 3 2 6
BITMAP
40
40
80
ENDCHAR

STARTCHAR parenleft
ENCODING 40
SWIDTH 333 0
DWIDTH 4 0
BBX 5 12 0 -3
BITMAP
08
10
20
40
40
80
80
80
80
80
40
40
ENDCHAR

STARTCHAR parenright
ENCODING 41
SWIDTH 333 0
DWIDTH 4 0
BBX 5 12 -1 -3
BITMAP
10
10
08
08
08
08
08
10
10
20
40
80
ENDCHAR

STARTCHAR asterisk
ENCODING 42
SWIDTH 500 0
DWIDTH 7 0
BBX 5 6 1 4
BITMAP
20
A8
70
70
A8
20
ENDCHAR

STARTCHAR plus
ENCODING 43
SWIDTH 675 0
DWIDTH 9 0
BBX 7 7 1 0
BITMAP
10
10
10
FE
10
10
10
ENDCHAR

STARTCHAR comma
ENCODING 44
SWIDTH 250 0
DWIDTH 3 0
BBX 2 3 0 -2
BITMAP
40
40
80
ENDCHAR

STARTCHAR minus
ENCODING 45
SWIDTH 675 0
DWIDTH 9 0
BBX 7 1 1 3
BITMAP
FE
ENDCHAR

STARTCHAR period
ENCODING 46
SWIDTH 250 0
DWIDTH 3 0
BBX 1 1 1 0
BITMAP
80
ENDCHAR

STARTCHAR slash
ENCODING 47
SWIDTH 278 0
DWIDTH 4 0
BBX 5 9 -1 0
BITMAP
08
08
10
10
20
40
40
80
80
ENDCHAR

STARTCHAR zero
ENCODING 48
SWIDTH 500 0
DWIDTH 6 0
BBX 6 9 0 0
BITMAP
18
24
44
44
84
88
88
90
60
ENDCHAR

STARTCHAR one
ENCODING 49
SWIDTH 500 0
DWIDTH 6 0
BBX 4 9 1 0
BITMAP
30
10
10
20
20
20
40
40
E0
ENDCHAR

STARTCHAR two
ENCODING 50
SWIDTH 500 0
DWIDTH 6 0
BBX 6 9 0 0
BITMAP
18
24
04
04
08
10
20
48
F8
ENDCHAR

STARTCHAR three
ENCODING 51
SWIDTH 500 0
DWIDTH 6 0
BBX 6 9 0 0
BITMAP
18
24
08
30
10
08
08
90
60
ENDCHAR

STARTCHAR four
ENCODING 52
SWIDTH 500 0
DWIDTH 6 0
BBX 6 9 0 0
BITMAP
04
0C
18
28
48
90
FC
10
10
ENDCHAR

STARTCHAR five
ENCODING 53
SWIDTH 500 0
DWIDTH 6 0
BBX 6 9 0 0
BITMAP
1C
20
20
70
08
08
08
90
60
ENDCHAR

STARTCHAR six
ENCODING 54
SWIDTH 500 0
DWIDTH 6 0
BBX 6 9 0 0
BITMAP
0C
10
20
70
48
88
88
90
60
ENDCHAR

STARTCHAR seven
ENCODING 55
SWIDTH 500 0
DWIDTH 6 0
BBX 5 9 1 0
BITMAP
78
90
10
20
20
40
40
80
80
ENDCHAR

STARTCHAR eight
ENCODING 56
SWIDTH 500 0
DWIDTH 6 0
BBX 6 9 0 0
BITMAP
38
44
44
28
50
88
88
88
70
ENDCHAR

STARTCHAR nine
ENCODING 57
SWIDTH 500 0
DWIDTH 6 0
BBX 6 9 0 0
BITMAP
18
24
44
44
48
38
10
20
C0
ENDCHAR

STARTCHAR colon
ENCODING 58
SWIDTH 333 0
DWIDTH 4 0
BBX 2 6 1 0
BITMAP
40
00
00
00
00
80
ENDCHAR

STARTCHAR semicolon
ENCODING 59
SWIDTH 333 0
DWIDTH 4 0
BBX 3 8 0 -2
BITMAP
20
00
00
00
00
40
40
80
ENDCHAR

STARTCHAR less
ENCODING 60
SWIDTH 675 0
DWIDTH 9 0
BBX 7 5 1 1
BITMAP
0E
30
C0
30
0E
ENDCHAR

STARTCHAR equal
ENCODING 61
SWIDTH 675 0
DWIDTH 9 0
BBX 7 3 1 2
BITMAP
FE
00
FE
ENDCHAR

STARTCHAR greater
ENCODING 62
SWIDTH 675 0
DWIDTH 9 0
BBX 7 5 0 1
BITMAP
E0
18
06
18
E0
ENDCHAR

STARTCHAR question
ENCODING 63
SWIDTH 500 0
DWIDTH 7 0
BBX 4 9 2 0
BITMAP
60
90
10
20
40
80
80
00
80
ENDCHAR

STARTCHAR at
ENCODING 64
SWIDTH 920 0
DWIDTH 12 0
BBX 11 12 1 -3
BITMAP
0F80
3040
2020
4720
4920
9120
9220
96C0
9B20
4040
60C0
1F00
ENDCHAR

STARTCHAR A
ENCODING 65
SWIDTH 611 0
DWIDTH 8 0
BBX 8 9 -1 0
BITMAP
01
01
03
05
09
1E
22
42
E7
ENDCHAR

STARTCHAR B
ENCODING 66
SWIDTH 611 0
DWIDTH 8 0
BBX 8 9 0 0
BITMAP
7E
21
21
22
3C
42
42
42
FC
ENDCHAR

STARTCHAR C
ENCODING 67
SWIDTH 667 0
DWIDTH 9 0
BBX 8 9 1 0
BITMAP
1D
23
41
80
80
80
80
42
3C
ENDCHAR

STARTCHAR D
ENCODING 68
SWIDTH 722 0
DWIDTH 9 0
BBX 8 9 0 0
BITMAP
7C
22
21
21
21
41
42
44
F8
ENDCHAR

STARTCHAR E
ENCODING 69
SWIDTH 611 0
DWIDTH 8 0
BBX 8 9 0 0
BITMAP
7F
21
20
22
3C
44
40
42
FC
ENDCHAR

STARTCHAR F
ENCODING 70
SWIDTH 611 0
DWIDTH 8 0
BBX 8 9 0 0
BITMAP
7F
21
20
22
3C
44
40
40
E0
ENDCHAR

STARTCHAR G
ENCODING 71
SWIDTH 722 0
DWIDTH 9 0
BBX 8 9 1 0
BITMAP
1D
23
41
80
87
82
82
44
38
ENDCHAR

STARTCHAR H
ENCODING 72
SWIDTH 722 0
DWIDTH 9 0
BBX 9 9 0 0
BITMAP
7380
2100
2100
2100
3E00
4200
4200
4200
E700
ENDCHAR

STARTCHAR I
ENCODING 73
SWIDTH 333 0
DWIDTH 4 0
BBX 4 9 0 0
BITMAP
70
20
20
20
20
40
40
40
E0
ENDCHAR

STARTCHAR J
ENCODING 74
SWIDTH 444 0
DWIDTH 6 0
BBX 6 9 0 0
BITMAP
1C
08
08
08
08
10
10
90
60
ENDCHAR

STARTCHAR K
ENCODING 75
SWIDTH 667 0
DWIDTH 9 0
BBX 9 9 0 0
BITMAP
7380
2100
2200
2400
3800
4800
4400
4200
E700
ENDCHAR

STARTCHAR L
ENCODING 76
SWIDTH 556 0
DWIDTH 7 0
BBX 7 9 0 0
BITMAP
70
20
20
20
20
40
42
44
FC
ENDCHAR

STARTCHAR M
ENCODING 77
SWIDTH 833 0
DWIDTH 11 0
BBX 11 9 0 0
BITMAP
3060
1040
10C0
2940
2940
4A80
4C80
4880
E9C0
ENDCHAR

STARTCHAR N
ENCODING 78
SWIDTH 667 0
DWIDTH 9 0
BBX 9 9 0 0
BITMAP
6380
3100
3100
2900
2A00
4600
4600
4200
E200
ENDCHAR

STARTCHAR O
ENCODING 79
SWIDTH 722 0
DWIDTH 9 0
BBX 7 9 1 0
BITMAP
1C
22
42
82
82
82
84
88
70
ENDCHAR

STARTCHAR P
ENCODING 80
SWIDTH 611 0
DWIDTH 8 0
BBX 8 9 0 0
BITMAP
7E
21
21
22
3C
40
40
40
E0
ENDCHAR

STARTCHAR Q
ENCODING 81
SWIDTH 722 0
DWIDTH 9 0
BBX 8 12 0 -3
BITMAP
0E
11
21
41
41
41
42
44
38
20
41
BE
ENDCHAR

STARTCHAR R
ENCODING 82
SWIDTH 611 0
DWIDTH 8 0
BBX 7 9 0 0
BITMAP
7C
22
22
22
3C
48
44
44
E6
ENDCHAR

STARTCHAR S
ENCODING 83
SWIDTH 500 0
DWIDTH 7 0
BBX 6 9 1 0
BITMAP
34
4C
44
40
30
08
88
C8
B0
ENDCHAR

STARTCHAR T
ENCODING 84
SWIDTH 556 0
DWIDTH 7 0
BBX 7 9 0 0
BITMAP
7E
92
10
10
10
20
20
20
70
ENDCHAR

STARTCHAR U
ENCODING 85
SWIDTH 722 0
DWIDTH 9 0
BBX 8 9 1 0
BITMAP
E7
42
42
42
84
84
84
88
70
ENDCHAR

STARTCHAR V
ENCODING 86
SWIDTH 611 0
DWIDTH 8 0
BBX 8 9 1 0
BITMAP
E7
42
44
48
88
90
A0
C0
80
ENDCHAR

STARTCHAR W
ENCODING 87
SWIDTH 833 0
DWIDTH 11 0
BBX 11 9 1 0
BITMAP
EEE0
4440
4880
8880
9900
AA00
CC00
8800
8800
ENDCHAR

STARTCHAR X
ENCODING 88
SWIDTH 611 0
DWIDTH 8 0
BBX 9 9 -1 0
BITMAP
7380
2100
2200
1400
0800
1400
2200
4200
E700
ENDCHAR

STARTCHAR Y
ENCODING 89
SWIDTH 556 0
DWIDTH 7 0
BBX 8 9 0 0
BITMAP
E7
42
44
28
10
10
20
20
70
ENDCHAR

STARTCHAR Z
ENCODING 90
SWIDTH 556 0
DWIDTH 7 0
BBX 7 9 0 0
BITMAP
3E
44
08
08
10
20
20
42
FC
ENDCHAR

STARTCHAR bracketleft
ENCODING 91
SWIDTH 389 0
DWIDTH 5 0
BBX 5 12 0 -3
BITMAP
18
10
20
20
20
40
40
40
40
80
80
C0
ENDCHAR

STARTCHAR backslash
ENCODING 92
SWIDTH 278 0
DWIDTH 4 0
BBX 5 9 -1 0
BITMAP
80
80
40
40
20
10
10
08
08
ENDCHAR

STARTCHAR bracketright
ENCODING 93
SWIDTH 389 0
DWIDTH 5 0
BBX 5 12 -1 -3
BITMAP
18
08
08
10
10
10
10
20
20
20
40
C0
ENDCHAR

STARTCHAR asciicircum
ENCODING 94
SWIDTH 422 0
DWIDTH 5 0
BBX 5 5 0 4
BITMAP
20
20
50
88
88
ENDCHAR

STARTCHAR underscore
ENCODING 95
SWIDTH 500 0
DWIDTH 7 0
BBX 7 1 0 -2
BITMAP
FE
ENDCHAR

STARTCHAR quoteleft
ENCODING 96
SWIDTH 333 0
DWIDTH 4 0
BBX 2 3 1 6
BITMAP
40
80
80
ENDCHAR

STARTCHAR a
ENCODING 97
SWIDTH 500 0
DWIDTH 7 0
BBX 7 6 0 0
BITMAP
1A
24
44
88
98
6C
ENDCHAR

STARTCHAR b
ENCODING 98
SWIDTH 500 0
DWIDTH 6 0
BBX 5 9 0 0
BITMAP
60
20
40
50
68
48
88
90
E0
ENDCHAR

STARTCHAR c
ENCODING 99
SWIDTH 444 0
DWIDTH 6 0
BBX 5 6 0 0
BITMAP
30
48
80
80
90
60
ENDCHAR

STARTCHAR d
ENCODING 100
SWIDTH 500 0
DWIDTH 6 0
BBX 6 9 0 0
BITMAP
0C
04
08
38
48
88
90
B0
58
ENDCHAR

STARTCHAR e
ENCODING 101
SWIDTH 444 0
DWIDTH 6 0
BBX 5 6 0 0
BITMAP
30
48
F0
80
90
60
ENDCHAR

STARTCHAR f
ENCODING 102
SWIDTH 278 0
DWIDTH 4 0
BBX 7 12 -2 -3
BITMAP
06
08
10
38
10
10
20
20
20
20
40
80
ENDCHAR

STARTCHAR g
ENCODING 103
SWIDTH 500 0
DWIDTH 6 0
BBX 7 9 -1 -3
BITMAP
1A
24
44
58
20
70
88
88
70
ENDCHAR

STARTCHAR h
ENCODING 104
SWIDTH 500 0
DWIDTH 6 0
BBX 5 9 0 0
BITMAP
60
20
40
58
68
48
90
90
98
ENDCHAR

STARTCHAR i
ENCODING 105
SWIDTH 278 0
DWIDTH 4 0
BBX 3 8 0 0
BITMAP
40
00
C0
40
40
80
A0
C0
ENDCHAR

STARTCHAR j
ENCODING 106
SWIDTH 278 0
DWIDTH 4 0
BBX 5 11 -2 -3
BITMAP
08
00
18
08
08
10
10
10
10
20
C0
ENDCHAR

STARTCHAR k
ENCODING 107
SWIDTH 444 0
DWIDTH 6 0
BBX 5 9 0 0
BITMAP
60
20
40
58
50
60
A0
A8
90
ENDCHAR

STARTCHAR l
ENCODING 108
SWIDTH 278 0
DWIDTH 4 0
BBX 3 9 0 0
BITMAP
60
20
40
40
40
40
80
A0
C0
ENDCHAR

STARTCHAR m
ENCODING 109
SWIDTH 722 0
DWIDTH 9 0
BBX 8 6 0 0
BITMAP
DB
6D
49
92
92
93
ENDCHAR

STARTCHAR n
ENCODING 110
SWIDTH 500 0
DWIDTH 6 0
BBX 5 6 0 0
BITMAP
D8
68
48
90
90
98
ENDCHAR

STARTCHAR o
ENCODING 111
SWIDTH 500 0
DWIDTH 6 0
BBX 5 6 0 0
BITMAP
30
48
88
88
90
60
ENDCHAR

STARTCHAR p
ENCODING 112
SWIDTH 500 0
DWIDTH 6 0
BBX 7 9 -2 -3
BITMAP
34
1A
12
22
24
38
40
40
E0
ENDCHAR

STARTCHAR q
ENCODING 113
SWIDTH 500 0
DWIDTH 6 0
BBX 5 9 0 -3
BITMAP
38
48
88
90
B0
50
20
20
70
ENDCHAR

STARTCHAR r
ENCODING 114
SWIDTH 389 0
DWIDTH 5 0
BBX 5 6 0 0
BITMAP
D8
60
40
80
80
80
ENDCHAR

STARTCHAR s
ENCODING 115
SWIDTH 389 0
DWIDTH 5 0
BBX 5 6 0 0
BITMAP
38
48
60
10
90
E0
ENDCHAR

STARTCHAR t
ENCODING 116
SWIDTH 278 0
DWIDTH 4 0
BBX 3 8 0 0
BITMAP
20
40
E0
40
40
80
A0
40
ENDCHAR

STARTCHAR u
ENCODING 117
SWIDTH 500 0
DWIDTH 6 0
BBX 5 6 0 0
BITMAP
C8
48
48
90
B0
D8
ENDCHAR

STARTCHAR v
ENCODING 118
SWIDTH 444 0
DWIDTH 6 0
BBX 6 6 0 0
BITMAP
DC
48
50
50
60
40
ENDCHAR

STARTCHAR w
ENCODING 119
SWIDTH 667 0
DWIDTH 9 0
BBX 8 6 0 0
BITMAP
CB
49
5A
5A
6C
48
ENDCHAR

STARTCHAR x
ENCODING 120
SWIDTH 444 0
DWIDTH 6 0
BBX 6 6 0 0
BITMAP
6C
28
30
30
50
D8
ENDCHAR

STARTCHAR y
ENCODING 121
SWIDTH 444 0
DWIDTH 6 0
BBX 7 9 -2 -3
BITMAP
36
12
12
14
18
10
20
40
C0
ENDCHAR

STARTCHAR z
ENCODING 122
SWIDTH 389 0
DWIDTH 5 0
BBX 5 6 0 0
BITMAP
78
50
20
40
90
F0
ENDCHAR

STARTCHAR braceleft
ENCODING 123
SWIDTH 400 0
DWIDTH 5 0
BBX 4 12 1 -3
BITMAP
10
20
20
20
40
80
40
80
80
80
80
40
ENDCHAR

STARTCHAR bar
ENCODING 124
SWIDTH 200 0
DWIDTH 3 0
BBX 1 12 1 -3
BITMAP
80
80
80
80
80
80
80
80
80
80
80
80
ENDCHAR

STARTCHAR braceright
ENCODING 125
SWIDTH 400 0
DWIDTH 5 0
BBX 4 12 0 -3
BITMAP
20
10
10
10
10
20
10
20
40
40
40
80
ENDCHAR

STARTCHAR asciitilde
ENCODING 126
SWIDTH 541 0
DWIDTH 7 0
BBX 6 2 0 3
BITMAP
64
98
ENDCHAR

STARTCHAR space
ENCODING 160
SWIDTH 250 0
DWIDTH 4 0
BBX 0 0 0 0
BITMAP
ENDCHAR

STARTCHAR exclamdown
ENCODING 161
SWIDTH 389 0
DWIDTH 4 0
BBX 3 9 1 -3
BITMAP
20
00
40
40
40
40
80
80
80
ENDCHAR

STARTCHAR cent
ENCODING 162
SWIDTH 500 0
DWIDTH 7 0
BBX 5 10 1 -2
BITMAP
10
10
30
58
A0
A0
D0
60
40
40
ENDCHAR

STARTCHAR sterling
ENCODING 163
SWIDTH 500 0
DWIDTH 7 0
BBX 7 9 0 0
BITMAP
04
0A
10
10
38
10
60
A4
D8
ENDCHAR

STARTCHAR currency
ENCODING 164
SWIDTH 500 0
DWIDTH 7 0
BBX 6 6 1 0
BITMAP
B4
48
84
84
48
B4
ENDCHAR

STARTCHAR yen
ENCODING 165
SWIDTH 500 0
DWIDTH 7 0
BBX 7 9 0 0
BITMAP
66
24
28
10
7C
20
F8
20
70
ENDCHAR

STARTCHAR brokenbar
ENCODING 166
SWIDTH 200 0
DWIDTH 3 0
BBX 1 12 1 -3
BITMAP
80
80
80
80
00
00
00
00
80
80
80
80
ENDCHAR

STARTCHAR section
ENCODING 167
SWIDTH 500 0
DWIDTH 7 0
BBX 6 12 1 -3
BITMAP
18
24
20
30
48
48
48
48
30
10
90
60
ENDCHAR

STARTCHAR dieresis
ENCODING 168
SWIDTH 333 0
DWIDTH 4 0
BBX 3 1 1 7
BITMAP
A0
ENDCHAR

STARTCHAR copyright
ENCODING 169
SWIDTH 760 0
DWIDTH 10 0
BBX 8 9 1 0
BITMAP
3C
42
99
A5
A1
A5
99
42
3C
ENDCHAR

STARTCHAR ordfeminine
ENCODING 170
SWIDTH 276 0
DWIDTH 4 0
BBX 4 4 0 5
BITMAP
30
50
B0
D0
ENDCHAR

STARTCHAR guillemotleft
ENCODING 171
SWIDTH 500 0
DWIDTH 7 0
BBX 7 6 1 0
BITMAP
12
24
48
90
48
24
ENDCHAR

STARTCHAR logicalnot
ENCODING 172
SWIDTH 675 0
DWIDTH 9 0
BBX 7 3 1 2
BITMAP
FE
02
02
ENDCHAR

STARTCHAR hyphen
ENCODING 173
SWIDTH 333 0
DWIDTH 4 0
BBX 4 1 0 5
BITMAP
F0
ENDCHAR

STARTCHAR registered
ENCODING 174
SWIDTH 760 0
DWIDTH 10 0
BBX 8 9 1 0
BITMAP
3C
42
B9
A5
B9
A9
A5
42
3C
ENDCHAR

STARTCHAR macron
ENCODING 175
SWIDTH 333 0
DWIDTH 4 0
BBX 4 1 1 7
BITMAP
F0
ENDCHAR

STARTCHAR degree
ENCODING 176
SWIDTH 400 0
DWIDTH 5 0
BBX 4 4 1 5
BITMAP
60
90
90
60
ENDCHAR

STARTCHAR plusminus
ENCODING 177
SWIDTH 675 0
DWIDTH 9 0
BBX 7 7 1 0
BITMAP
10
10
10
FE
10
10
FE
ENDCHAR

STARTCHAR twosuperior
ENCODING 178
SWIDTH 300 0
DWIDTH 4 0
BBX 4 5 0 4
BITMAP
60
10
20
40
E0
ENDCHAR

STARTCHAR threesuperior
ENCODING 179
SWIDTH 300 0
DWIDTH 4 0
BBX 3 5 1 4
BITMAP
60
20
40
20
C0
ENDCHAR

STARTCHAR acute
ENCODING 180
SWIDTH 333 0
DWIDTH 4 0
BBX 2 2 1 7
BITMAP
40
80
ENDCHAR

STARTCHAR mu
ENCODING 181
SWIDTH 500 0
DWIDTH 6 0
BBX 6 9 -1 -3
BITMAP
24
24
24
48
58
6C
40
80
80
ENDCHAR

STARTCHAR paragraph
ENCODING 182
SWIDTH 523 0
DWIDTH 7 0
BBX 7 12 0 -3
BITMAP
3E
74
F4
E8
68
28
28
50
50
50
A0
A0
ENDCHAR

STARTCHAR periodcentered
ENCODING 183
SWIDTH 250 0
DWIDTH 3 0
BBX 1 1 1 4
BITMAP
80
ENDCHAR

STARTCHAR cedilla
ENCODING 184
SWIDTH 333 0
DWIDTH 4 0
BBX 3 3 0 -3
BITMAP
40
20
C0
ENDCHAR

STARTCHAR onesuperior
ENCODING 185
SWIDTH 300 0
DWIDTH 4 0
BBX 3 5 1 4
BITMAP
60
20
40
40
E0
ENDCHAR

STARTCHAR ordmasculine
ENCODING 186
SWIDTH 310 0
DWIDTH 4 0
BBX 4 5 0 4
BITMAP
20
50
90
A0
40
ENDCHAR

STARTCHAR guillemotright
ENCODING 187
SWIDTH 500 0
DWIDTH 7 0
BBX 7 6 0 0
BITMAP
48
24
12
24
48
90
ENDCHAR

STARTCHAR onequarter
ENCODING 188
SWIDTH 750 0
DWIDTH 10 0
BBX 9 9 1 0
BITMAP
6100
2200
4400
4400
E900
1300
1500
2780
4200
ENDCHAR

STARTCHAR onehalf
ENCODING 189
SWIDTH 750 0
DWIDTH 10 0
BBX 9 9 1 0
BITMAP
6100
2200
4400
4400
EB00
1080
1100
2200
4700
ENDCHAR

STARTCHAR threequarters
ENCODING 190
SWIDTH 750 0
DWIDTH 10 0
BBX 9 9 1 0
BITMAP
6100
2200
4400
2400
C900
1300
1500
2780
4200
ENDCHAR

STARTCHAR questiondown
ENCODING 191
SWIDTH 500 0
DWIDTH 7 0
BBX 4 9 1 -3
BITMAP
10
00
10
10
20
40
80
90
60
ENDCHAR

STARTCHAR Agrave
ENCODING 192
SWIDTH 611 0
DWIDTH 8 0
BBX 9 12 -1 0
BITMAP
0100
0080
0000
0100
0100
0300
0500
0900
1E00
2200
4200
E700
ENDCHAR

STARTCHAR Aacute
ENCODING 193
SWIDTH 611 0
DWIDTH 8 0
BBX 10 12 -1 0
BITMAP
0040
0080
0000
0100
0100
0300
0500
0900
1E00
2200
4200
E700
ENDCHAR

STARTCHAR Acircumflex
ENCODING 194
SWIDTH 611 0
DWIDTH 8 0
BBX 10 12 -1 0
BITMAP
0180
0240
0000
0100
0100
0300
0500
0900
1E00
2200
4200
E700
ENDCHAR

STARTCHAR Atilde
ENCODING 195
SWIDTH 611 0
DWIDTH 8 0
BBX 10 12 -1 0
BITMAP
0140
0280
0000
0100
0100
0300
0500
0900
1E00
2200
4200
E700
ENDCHAR

STARTCHAR Adieresis
ENCODING 196
SWIDTH 611 0
DWIDTH 8 0
BBX 10 11 -1 0
BITMAP
0140
0000
0100
0100
0300
0500
0900
1E00
2200
4200
EF00
ENDCHAR

STARTCHAR Aring
ENCODING 197
SWIDTH 611 0
DWIDTH 8 0
BBX 10 12 -1 0
BITMAP
0080
0140
0080
0100
0100
0300
0500
0900
1E00
2200
4200
E700
ENDCHAR

STARTCHAR AE
ENCODING 198
SWIDTH 889 0
DWIDTH 12 0
BBX 12 9 0 0
BITMAP
0FF0
0610
0A00
0A20
13C0
3C40
2400
4420
EFC0
ENDCHAR

STARTCHAR Ccedilla
ENCODING 199
SWIDTH 667 0
DWIDTH 9 0
BBX 8 11 1 -2
BITMAP
1D
23
41
80
80
80
80
42
3C
08
18
ENDCHAR

STARTCHAR Egrave
ENCODING 200
SWIDTH 611 0
DWIDTH 8 0
BBX 8 12 0 0
BITMAP
08
04
00
7F
21
20
22
3C
44
40
42
FC
ENDCHAR

STARTCHAR Eacute
ENCODING 201
SWIDTH 611 0
DWIDTH 8 0
BBX 8 12 0 0
BITMAP
04
08
00
7F
21
20
22
3C
44
40
42
FC
ENDCHAR

STARTCHAR Ecircumflex
ENCODING 202
SWIDTH 611 0
DWIDTH 8 0
BBX 8 12 0 0
BITMAP
06
09
00
7F
21
20
22
3C
44
40
42
FC
ENDCHAR

STARTCHAR Edieresis
ENCODING 203
SWIDTH 611 0
DWIDTH 8 0
BBX 8 11 0 0
BITMAP
0A
00
7F
21
20
22
3C
44
40
42
FC
ENDCHAR

STARTCHAR Igrave
ENCODING 204
SWIDTH 333 0
DWIDTH 4 0
BBX 4 12 0 0
BITMAP
20
10
00
70
20
20
20
20
40
40
40
E0
ENDCHAR

STARTCHAR Iacute
ENCODING 205
SWIDTH 333 0
DWIDTH 4 0
BBX 4 12 0 0
BITMAP
10
20
00
70
20
20
20
20
40
40
40
E0
ENDCHAR

STARTCHAR Icircumflex
ENCODING 206
SWIDTH 333 0
DWIDTH 4 0
BBX 5 12 0 0
BITMAP
30
48
00
70
20
20
20
20
40
40
40
E0
ENDCHAR

STARTCHAR Idieresis
ENCODING 207
SWIDTH 333 0
DWIDTH 4 0
BBX 5 11 0 0
BITMAP
28
00
70
20
20
20
20
40
40
40
E0
ENDCHAR

STARTCHAR Gbreve
ENCODING 208
SWIDTH 722 0
DWIDTH 9 0
BBX 8 12 1 0
BITMAP
12
0C
00
1D
23
41
80
87
82
82
44
38
ENDCHAR

STARTCHAR Ntilde
ENCODING 209
SWIDTH 667 0
DWIDTH 9 0
BBX 9 12 0 0
BITMAP
0500
0A00
0000
6380
3100
3100
2900
2A00
4600
4600
4200
E200
ENDCHAR

STARTCHAR Ograve
ENCODING 210
SWIDTH 722 0
DWIDTH 9 0
BBX 7 12 1 0
BITMAP
08
04
00
1C
22
42
82
82
82
84
88
70
ENDCHAR

STARTCHAR Oacute
ENCODING 211
SWIDTH 722 0
DWIDTH 9 0
BBX 7 12 1 0
BITMAP
02
04
00
1C
22
42
82
82
82
84
88
70
ENDCHAR

STARTCHAR Ocircumflex
ENCODING 212
SWIDTH 722 0
DWIDTH 9 0
BBX 8 12 1 0
BITMAP
06
09
00
1C
22
42
82
82
82
84
88
70
ENDCHAR

STARTCHAR Otilde
ENCODING 213
SWIDTH 722 0
DWIDTH 9 0
BBX 8 12 1 0
BITMAP
05
0A
00
1C
22
42
82
82
82
84
88
70
ENDCHAR

STARTCHAR Odieresis
ENCODING 214
SWIDTH 722 0
DWIDTH 9 0
BBX 7 11 1 0
BITMAP
0A
00
1C
22
42
82
82
82
84
88
70
ENDCHAR

STARTCHAR multiply
ENCODING 215
SWIDTH 675 0
DWIDTH 9 0
BBX 5 5 2 1
BITMAP
88
50
20
50
88
ENDCHAR

STARTCHAR Oslash
ENCODING 216
SWIDTH 722 0
DWIDTH 9 0
BBX 9 9 0 0
BITMAP
0E80
1100
2300
4500
4900
4900
5200
6400
B800
ENDCHAR

STARTCHAR Ugrave
ENCODING 217
SWIDTH 722 0
DWIDTH 9 0
BBX 8 12 1 0
BITMAP
10
08
00
E7
42
42
42
84
84
84
88
70
ENDCHAR

STARTCHAR Uacute
ENCODING 218
SWIDTH 722 0
DWIDTH 9 0
BBX 8 12 1 0
BITMAP
04
08
00
E7
42
42
42
84
84
84
88
70
ENDCHAR

STARTCHAR Ucircumflex
ENCODING 219
SWIDTH 722 0
DWIDTH 9 0
BBX 8 12 1 0
BITMAP
0C
12
00
E7
42
42
42
84
84
84
88
70
ENDCHAR

STARTCHAR Udieresis
ENCODING 220
SWIDTH 722 0
DWIDTH 9 0
BBX 8 11 1 0
BITMAP
14
00
E7
42
42
42
84
84
84
88
70
ENDCHAR

STARTCHAR Idotaccent
ENCODING 221
SWIDTH 333 0
DWIDTH 4 0
BBX 4 11 0 0
BITMAP
20
00
70
20
20
20
20
40
40
40
E0
ENDCHAR

STARTCHAR Scedilla
ENCODING 222
SWIDTH 500 0
DWIDTH 7 0
BBX 6 11 1 -2
BITMAP
34
4C
44
40
30
08
88
C8
B0
10
30
ENDCHAR

STARTCHAR germandbls
ENCODING 223
SWIDTH 500 0
DWIDTH 7 0
BBX 9 12 -2 -3
BITMAP
0300
0480
0900
1200
1100
1100
2100
2200
2400
2000
A000
4000
ENDCHAR

STARTCHAR agrave
ENCODING 224
SWIDTH 500 0
DWIDTH 7 0
BBX 7 9 0 0
BITMAP
08
04
00
1A
24
44
88
98
6C
ENDCHAR

STARTCHAR aacute
ENCODING 225
SWIDTH 500 0
DWIDTH 7 0
BBX 7 9 0 0
BITMAP
04
08
00
1A
24
44
88
98
6C
ENDCHAR

STARTCHAR acircumflex
ENCODING 226
SWIDTH 500 0
DWIDTH 7 0
BBX 7 9 0 0
BITMAP
0C
12
00
1A
24
44
88
98
6C
ENDCHAR

STARTCHAR atilde
ENCODING 227
SWIDTH 500 0
DWIDTH 7 0
BBX 7 9 0 0
BITMAP
0A
14
00
1A
24
44
88
98
6C
ENDCHAR

STARTCHAR adieresis
ENCODING 228
SWIDTH 500 0
DWIDTH 7 0
BBX 7 8 0 0
BITMAP
0A
00
1A
24
44
88
98
6C
ENDCHAR

STARTCHAR aring
ENCODING 229
SWIDTH 500 0
DWIDTH 7 0
BBX 7 10 0 0
BITMAP
04
0A
04
00
1A
24
44
88
98
6C
ENDCHAR

STARTCHAR ae
ENCODING 230
SWIDTH 667 0
DWIDTH 9 0
BBX 9 6 0 0
BITMAP
1B00
2480
4F00
8800
9900
6600
ENDCHAR

STARTCHAR ccedilla
ENCODING 231
SWIDTH 444 0
DWIDTH 6 0
BBX 5 8 0 -2
BITMAP
30
48
80
80
90
60
40
C0
ENDCHAR

STARTCHAR egrave
ENCODING 232
SWIDTH 444 0
DWIDTH 6 0
BBX 5 9 0 0
BITMAP
10
08
00
30
48
F0
80
90
60
ENDCHAR

STARTCHAR eacute
ENCODING 233
SWIDTH 444 0
DWIDTH 6 0
BBX 5 9 0 0
BITMAP
08
10
00
30
48
F0
80
90
60
ENDCHAR

STARTCHAR ecircumflex
ENCODING 234
SWIDTH 444 0
DWIDTH 6 0
BBX 6 9 0 0
BITMAP
18
24
00
30
48
F0
80
90
60
ENDCHAR

STARTCHAR edieresis
ENCODING 235
SWIDTH 444 0
DWIDTH 6 0
BBX 5 8 0 0
BITMAP
28
00
30
48
F0
80
90
60
ENDCHAR

STARTCHAR igrave
ENCODING 236
SWIDTH 278 0
DWIDTH 4 0
BBX 3 9 0 0
BITMAP
40
20
00
C0
40
40
80
A0
C0
ENDCHAR

STARTCHAR iacute
ENCODING 237
SWIDTH 278 0
DWIDTH 4 0
BBX 3 9 0 0
BITMAP
20
40
00
C0
40
40
80
A0
C0
ENDCHAR

STARTCHAR icircumflex
ENCODING 238
SWIDTH 278 0
DWIDTH 4 0
BBX 4 9 0 0
BITMAP
60
90
00
C0
40
40
80
A0
C0
ENDCHAR

STARTCHAR idieresis
ENCODING 239
SWIDTH 278 0
DWIDTH 4 0
BBX 4 9 0 0
BITMAP
50
00
00
C0
40
40
80
A0
C0
ENDCHAR

STARTCHAR gbreve
ENCODING 240
SWIDTH 500 0
DWIDTH 6 0
BBX 7 12 -1 -3
BITMAP
12
0C
00
1A
24
44
58
20
70
88
88
70
ENDCHAR

STARTCHAR ntilde
ENCODING 241
SWIDTH 500 0
DWIDTH 6 0
BBX 6 9 0 0
BITMAP
14
28
00
D8
68
48
90
90
98
ENDCHAR

STARTCHAR ograve
ENCODING 242
SWIDTH 500 0
DWIDTH 6 0
BBX 5 9 0 0
BITMAP
20
10
00
30
48
88
88
90
60
ENDCHAR

STARTCHAR oacute
ENCODING 243
SWIDTH 500 0
DWIDTH 6 0
BBX 5 9 0 0
BITMAP
08
10
00
30
48
88
88
90
60
ENDCHAR

STARTCHAR ocircumflex
ENCODING 244
SWIDTH 500 0
DWIDTH 6 0
BBX 6 9 0 0
BITMAP
18
24
00
30
48
88
88
90
60
ENDCHAR

STARTCHAR otilde
ENCODING 245
SWIDTH 500 0
DWIDTH 6 0
BBX 6 9 0 0
BITMAP
14
28
00
30
48
88
88
90
60
ENDCHAR

STARTCHAR odieresis
ENCODING 246
SWIDTH 500 0
DWIDTH 6 0
BBX 5 8 0 0
BITMAP
28
00
30
48
88
88
90
60
ENDCHAR

STARTCHAR divide
ENCODING 247
SWIDTH 675 0
DWIDTH 9 0
BBX 7 5 1 1
BITMAP
10
00
FE
00
10
ENDCHAR

STARTCHAR oslash
ENCODING 248
SWIDTH 500 0
DWIDTH 6 0
BBX 7 6 -1 0
BITMAP
1A
24
4C
54
68
B0
ENDCHAR

STARTCHAR ugrave
ENCODING 249
SWIDTH 500 0
DWIDTH 6 0
BBX 5 9 0 0
BITMAP
20
10
00
C8
48
48
90
B0
D8
ENDCHAR

STARTCHAR uacute
ENCODING 250
SWIDTH 500 0
DWIDTH 6 0
BBX 5 9 0 0
BITMAP
08
10
00
C8
48
48
90
B0
D8
ENDCHAR

STARTCHAR ucircumflex
ENCODING 251
SWIDTH 500 0
DWIDTH 6 0
BBX 6 9 0 0
BITMAP
18
24
00
C8
48
48
90
B0
D8
ENDCHAR

STARTCHAR udieresis
ENCODING 252
SWIDTH 500 0
DWIDTH 6 0
BBX 5 8 0 0
BITMAP
28
00
C8
48
48
90
B0
D8
ENDCHAR

STARTCHAR dotlessi
ENCODING 253
SWIDTH 278 0
DWIDTH 4 0
BBX 3 6 0 0
BITMAP
C0
40
40
80
A0
C0
ENDCHAR

STARTCHAR scedilla
ENCODING 254
SWIDTH 389 0
DWIDTH 5 0
BBX 5 8 0 -2
BITMAP
38
48
60
10
90
E0
20
60
ENDCHAR

STARTCHAR ydieresis
ENCODING 255
SWIDTH 444 0
DWIDTH 6 0
BBX 7 11 -2 -3
BITMAP
0A
00
36
12
12
14
18
10
20
40
C0
ENDCHAR
ENDFONT
